<?xml version="1.0" standalone="no"?>
<!DOCTYPE svg PUBLIC "-//W3C//DTD SVG 20010904//EN"
 "http://www.w3.org/TR/2001/REC-SVG-20010904/DTD/svg10.dtd">
<svg version="1.0" xmlns="http://www.w3.org/2000/svg"
 width="418.000000pt" height="417.000000pt" viewBox="0 0 418.000000 417.000000"
 preserveAspectRatio="xMidYMid meet">

<g transform="translate(0.000000,417.000000) scale(0.100000,-0.100000)"
fill="#000000" stroke="none">
<path d="M1925 4164 c-301 -32 -536 -98 -775 -220 -602 -305 -1003 -849 -1121
-1519 -33 -186 -33 -493 0 -678 62 -351 190 -648 402 -929 131 -174 396 -411
571 -513 l48 -27 0 61 c0 59 3 65 75 176 l74 115 120 0 c112 0 120 -1 113 -18
-4 -10 -41 -98 -82 -195 l-75 -177 -75 -1 -75 -1 100 -49 c55 -26 106 -47 114
-46 8 1 128 299 297 736 156 404 284 735 284 736 0 1 -18 5 -40 9 -44 7 -102
52 -126 97 -11 23 -14 92 -14 379 0 381 0 378 57 432 37 35 69 47 153 54 61 6
67 8 54 22 -18 18 -15 41 9 56 37 23 77 -35 41 -61 -16 -11 -11 -13 36 -13 47
0 51 2 36 13 -11 8 -17 23 -14 38 2 19 9 24 32 24 39 0 56 -27 33 -53 -17 -19
-16 -19 53 -26 39 -3 86 -12 103 -20 39 -16 82 -61 96 -99 17 -45 15 -699 -3
-740 -19 -47 -79 -96 -127 -103 -30 -5 -38 -10 -34 -23 3 -9 131 -340 284
-736 168 -433 284 -721 292 -722 8 -1 59 20 114 46 l100 49 -76 1 -75 1 -68
163 c-38 89 -75 177 -82 195 l-14 32 120 0 120 0 75 -115 c72 -112 75 -118 75
-176 l0 -61 48 27 c175 102 440 339 571 513 212 281 341 579 402 929 30 170
32 471 6 642 -23 146 -67 316 -112 433 -272 705 -895 1207 -1641 1323 -97 16
-400 27 -479 19z m315 -118 c281 -15 588 -110 846 -261 459 -271 791 -712 919
-1225 68 -270 75 -608 19 -867 l-16 -73 -658 0 -658 0 -4 327 c-4 311 -5 331
-27 393 -35 100 -78 169 -150 240 -116 115 -253 170 -421 170 -110 0 -190 -19
-285 -68 -97 -50 -201 -156 -249 -253 -59 -119 -66 -174 -66 -511 l0 -298
-659 0 -659 0 -16 73 c-56 259 -49 597 19 867 209 836 939 1441 1795 1490 63
3 126 5 140 4 14 -2 72 -5 130 -8z m-430 -2491 c0 -8 -7 -15 -15 -15 -16 0
-20 12 -8 23 11 12 23 8 23 -8z m588 -4 c3 -8 -1 -12 -9 -9 -7 2 -15 10 -17
17 -3 8 1 12 9 9 7 -2 15 -10 17 -17z m-638 -106 c0 -4 -7 -19 -15 -35 -11
-21 -23 -30 -40 -30 -30 0 -33 24 -8 52 14 16 63 26 63 13z m722 -12 c27 -24
23 -53 -7 -53 -17 0 -29 9 -40 30 -8 16 -15 31 -15 35 0 12 45 4 62 -12z
m-797 -180 c-4 -10 -12 -30 -17 -45 -9 -24 -15 -28 -49 -28 -46 0 -52 21 -18
64 15 19 30 26 56 26 29 0 34 -3 28 -17z m894 -12 c32 -45 28 -61 -18 -61 -34
0 -40 4 -49 28 -5 15 -13 35 -17 45 -6 14 -1 17 28 17 28 0 40 -6 56 -29z
m-982 -243 c-3 -7 -20 -46 -38 -85 l-32 -73 -68 0 -69 0 0 35 c0 24 11 50 36
85 l36 50 70 0 c52 0 69 -3 65 -12z m1157 -38 c25 -35 36 -61 36 -85 l0 -35
-69 0 -68 0 -32 73 c-18 39 -35 78 -38 85 -4 9 13 12 65 12 l70 0 36 -50z"/>
<path d="M1998 2543 c-23 -6 -34 -49 -18 -68 15 -18 179 -21 211 -5 26 14 24
45 -3 64 -22 15 -145 21 -190 9z"/>
<path d="M1853 2400 c-42 -25 -56 -75 -51 -173 7 -144 39 -160 308 -155 174 3
187 4 217 26 41 29 57 84 51 177 -9 137 -25 145 -290 145 -184 0 -206 -2 -235
-20z"/>
<path d="M1844 1822 c-41 -27 -35 -95 11 -112 66 -25 128 57 77 103 -19 17
-68 22 -88 9z"/>
<path d="M2247 1812 c-47 -52 14 -133 75 -101 30 16 38 28 38 60 0 53 -77 80
-113 41z"/>
<path d="M1941 1588 c-6 -18 -112 -361 -236 -762 -172 -557 -223 -731 -213
-737 19 -12 173 -47 290 -66 142 -23 474 -23 616 0 116 19 271 54 289 65 10 6
-46 200 -222 767 -129 417 -235 760 -235 762 0 1 -63 3 -139 3 l-139 0 -11
-32z m239 -33 c0 -12 -17 -15 -90 -15 -73 0 -90 3 -90 15 0 12 17 15 90 15 73
0 90 -3 90 -15z m53 -112 c2 -5 7 -20 11 -35 l6 -28 -160 0 -160 0 6 28 c4 15
9 30 11 35 2 4 67 7 143 7 76 0 141 -3 143 -7z m46 -210 c6 -21 11 -41 11 -45
0 -5 -90 -8 -200 -8 -110 0 -200 3 -200 8 0 4 5 24 11 45 l10 37 179 0 179 0
10 -37z m75 -294 c9 -39 16 -78 16 -85 0 -12 -49 -14 -280 -14 -246 0 -280 2
-280 16 0 8 7 46 16 85 l16 69 248 0 248 0 16 -71z m158 -504 l55 -195 -477 0
-477 0 55 195 56 195 366 0 366 0 56 -195z"/>
</g>
</svg>
